PathFileType	4	(X/Y/Z)	D:\TRACE\spot_10-12-23\spot_body_baseline_4-v60.trc
DataRate	CameraRate	NumFrames	NumMarkers	Units	OrigDataRate	OrigDataStartFrame	OrigNumFrames
100.00	100.00	      17	9	mm	100.00	1	      7000
Frame#	Time	front left toe			Front right toe			aft left toe			aft right toe			Arm			FL body			FR body			AL Body			AR Body			
		X1	Y1	Z1	X2	Y2	Z2	X3	Y3	Z3	X4	Y4	Z4	X5	Y5	Z5	X6	Y6	Z6	X7	Y7	Z7	X8	Y8	Z8	X9	Y9	Z9	

1	0.000	-261.23886	85.98602	-12.23339	161.96872	106.90640	-58.15984	-172.48209	84.44439	584.68744	247.15804	75.00480	527.37903	-42.82608	553.89624	-142.20570	-129.01221	292.15915	-117.47673	22.25055	295.57849	-137.88731	-17.84504	281.65408	758.77222	132.55437	279.08774	742.49133	
2	0.010	-261.67899	87.31140	-10.88471	163.57191	108.06928	-57.42443	-173.02882	85.79568	586.09589	248.71796	75.95205	528.43304	-42.56377	554.03967	-141.37109	-128.58908	292.16916	-116.50393	22.63119	295.72174	-137.08856	-17.05680	281.45886	759.74341	133.51428	279.00952	743.37903	
3	0.020	-261.75311	88.79276	-9.09152	165.22070	109.24574	-56.39805	-173.29274	87.00130	587.31525	250.53140	77.11639	529.56824	-42.26964	554.16846	-140.39705	-128.38454	292.47839	-115.95216	23.15660	296.04187	-136.15187	-16.28898	281.12421	760.59991	134.13316	278.79868	743.89532	
4	0.030	-262.00516	90.80155	-7.73328	166.64507	110.56738	-55.35219	-173.48808	88.03770	588.80511	252.59052	78.65600	530.72382	-42.23281	554.40222	-139.47293	-127.75976	292.46970	-114.77624	23.52254	296.30215	-135.50526	-15.63916	281.18906	761.56146	134.52963	278.55365	744.36041	
5	0.040	-261.89630	91.96612	-6.20967	169.41167	112.32978	-54.99381	-173.38986	88.48174	590.42542	254.05504	80.44290	531.67938	-42.09402	554.52283	-138.48396	-127.35725	292.42169	-114.24897	23.82730	296.44373	-134.72539	-15.03126	280.69522	762.17285	134.73776	278.60645	745.13928	
6	0.050	-261.97498	92.68180	-4.29786	170.93916	113.34380	-53.42228	-173.58496	89.28950	591.39728	256.03363	82.30810	532.84924	-41.86293	554.58942	-137.49736	-126.65255	292.37140	-113.41865	24.33143	296.66077	-133.93990	-14.57302	280.52219	762.98822	135.71805	278.31189	746.01605	
7	0.060	-262.04926	93.75568	-3.04023	172.70734	114.81590	-52.42792	-173.85097	89.91555	593.02942	258.71225	84.11410	534.01068	-41.71009	554.78412	-136.70303	-126.24132	292.37137	-112.41657	24.75419	296.97571	-133.08624	-13.68887	280.38147	763.65790	136.48891	278.37585	747.09070	
8	0.070	-262.23779	94.51565	-1.17027	174.15028	116.23705	-51.95592	-174.31943	90.79975	594.39856	260.40881	85.59319	535.06415	-41.74638	555.14557	-135.69814	-125.80429	292.51974	-111.62946	25.23475	297.57529	-132.65395	-13.12784	280.05554	764.48737	137.14796	278.28152	747.80914	
9	0.080	-262.14771	96.24191	0.29241	176.16637	117.44217	-50.02759	-174.38316	91.39199	595.70319	261.88742	87.21227	536.19946	-41.62096	555.09564	-134.78822	-125.24223	292.55157	-110.71165	25.62059	297.89658	-131.95164	-12.16535	280.00055	766.05017	137.77759	278.34805	748.73718	
10	0.090	-262.09418	98.27412	1.82012	177.99832	118.79981	-49.06625	-174.31966	92.29104	597.34448	263.41788	88.56896	537.50110	-41.58774	555.27606	-133.89931	-125.03870	292.48471	-110.02512	25.98722	297.95502	-131.04311	-12.14929	279.75021	766.26080	138.41447	278.70416	749.27704	
11	0.100	-261.97211	99.64279	3.32046	179.57370	120.16302	-47.74880	-174.35629	93.06522	598.62872	265.29953	90.35672	538.64362	-41.48899	555.21558	-132.92633	-124.40285	292.54822	-109.09737	26.68839	298.03616	-130.25058	-11.37803	279.58609	766.92505	140.00681	279.11002	751.07355	
12	0.110	-262.06500	100.53938	4.72296	181.20474	121.65807	-46.66590	-175.09421	94.56559	599.89038	266.20160	92.27267	539.83026	-41.43626	555.30115	-131.85107	-123.98056	292.55292	-108.33111	26.88343	298.13840	-129.56017	-10.58455	279.38644	767.77539	139.33247	278.71454	751.16779	
13	0.120	-261.77371	101.42726	6.70054	182.86366	122.85209	-45.43016	-174.66885	95.31004	601.19177	268.27023	94.66812	540.96387	-41.38705	555.25623	-131.10840	-123.44007	292.21884	-107.46596	27.72050	298.40762	-128.47192	-10.09745	279.28537	768.72144	139.68002	279.01456	751.88715	
14	0.130	-261.67261	102.82421	8.33042	184.60666	124.38789	-44.27438	-174.60599	95.86263	602.58746	269.83264	96.29960	542.31488	-41.35381	555.30548	-130.21263	-122.84428	292.04272	-106.55341	27.90807	298.34424	-128.02657	-9.51089	279.08826	769.69604	140.58672	278.94632	752.62762	
15	0.140	-261.70483	104.02560	9.77513	186.39340	125.40991	-42.98951	-174.64772	96.61401	604.06958	271.76746	97.95984	543.54211	-41.45529	555.22626	-129.44122	-122.26301	291.73627	-105.77069	28.63291	298.17532	-126.29652	-8.97326	279.13800	770.49097	141.50252	279.07565	753.47742	
16	0.150	-261.48901	104.90885	11.57028	187.97209	126.79637	-41.94549	-174.94884	97.88783	605.97693	273.29196	99.53046	544.82867	-41.36637	555.18604	-128.39360	-122.03061	291.58484	-104.69899	28.94109	298.17108	-125.60160	-8.26165	279.31308	771.92078	142.14240	279.35666	754.45331	
17	0.160	-261.68875	105.55017	13.17265	189.44052	127.97982	-40.66735	-175.03404	98.74809	607.56927	275.09076	101.26465	546.28577	-41.46968	555.16345	-127.81944	-121.61521	291.50421	-103.96283	29.39976	298.09241	-124.70638	-7.46497	279.24362	772.43396	142.78531	279.50891	755.15491	
